<?xml version="1.0"?>
<svg xmlns="http://www.w3.org/2000/svg" id="Outline" viewBox="0 0 512 512" width="512" height="512"><path d="M493.973,389.323a8,8,0,0,0,1.974-6.24l-24-208A8,8,0,0,0,464,168H424V152a48,48,0,0,0-96,0H312V128a56,56,0,0,0-112,0v24H184a48,48,0,0,0-96,0v16H48a8,8,0,0,0-7.947,7.083l-24,208A8,8,0,0,0,24,392h98.642l-3.609,39.268A8,8,0,0,0,127,440H384a8,8,0,0,0,7.969-8.7L388.5,392H488A8,8,0,0,0,493.973,389.323ZM376,120a32.036,32.036,0,0,1,32,32v16H368.737l-.768-8.7A8,8,0,0,0,360,152H344A32.036,32.036,0,0,1,376,120Zm-160,8a40,40,0,0,1,80,0v24H216ZM104,152a32,32,0,0,1,64,0H152a8,8,0,0,0-7.967,7.268l-.8,8.732H104ZM32.977,376,55.13,184H88v16a8,8,0,0,0,16,0V184h37.76L124.113,376Zm102.792,48L159.3,168H200v32a8,8,0,0,0,16,0V168h80v32a8,8,0,0,0,16,0V168h40.675l22.588,256ZM387.09,376,370.148,184H408v16a8,8,0,0,0,16,0V184h32.87l22.153,192Z"/><circle cx="208" cy="232" r="8"/><circle cx="96" cy="232" r="8"/><circle cx="304" cy="232" r="8"/><circle cx="416" cy="232" r="8"/></svg>
